PathFileType	4	(X/Y/Z)	C:\My Captures\DataSMARTClinic\0056~004 ID\0056~aa~STRATO3\Standing_ID_04_STRATO.trc
DataRate	CameraRate	NumFrames	NumMarkers	Units	OrigDataRate	OrigDataStartFrame	OrigNumFrames
250.00	250.00	9	22	mm	250.00	2265	2621
Frame#	Time	r.should			l.should			c7			r.asis			l.asis			sacrum			r.bar1			l.bar1			r.knee1			l.knee1			r.bar2			r.mall			l.bar2			l.mall			r.met			r.heel			l.heel			l.met			r.mallm			l.mallm			r.kneem			l.kneem			
		X1	Y1	Z1	X2	Y2	Z2	X3	Y3	Z3	X4	Y4	Z4	X5	Y5	Z5	X6	Y6	Z6	X7	Y7	Z7	X8	Y8	Z8	X9	Y9	Z9	X10	Y10	Z10	X11	Y11	Z11	X12	Y12	Z12	X13	Y13	Z13	X14	Y14	Z14	X15	Y15	Z15	X16	Y16	Z16	X17	Y17	Z17	X18	Y18	Z18	X19	Y19	Z19	X20	Y20	Z20	X21	Y21	Z21	X22	Y22	Z22	

2264	9.056000	866.920829	1254.220963	357.784897	852.804124	1258.325338	75.503223	772.511423	1313.263297	215.619251	973.151028	882.033110	340.759099	976.490736	875.037491	101.880819	731.189430	906.422138	206.607416	865.439475	801.343083	424.504578	884.361088	771.391273	23.413319	901.483715	463.856041	408.842504	883.569896	471.852869	78.025326	879.349709	402.397037	416.088402	830.026746	71.094826	438.105702	866.732955	397.757828	77.712893	853.865683	72.008908	91.573916	969.465137	43.539055	433.999896	777.911723	53.696040	390.731514	796.865463	57.575662	126.835153	985.326290	44.024777	114.807218	857.815504	69.431350	361.696005	866.456509	72.800972	168.879375	896.388650	447.717220	261.100382	855.250776	447.617620	221.093833	
2265	9.060000	866.916537	1254.226685	357.756615	852.784157	1258.328319	75.477384	772.492945	1313.275337	215.600818	973.152339	882.052720	340.734094	976.453543	875.042856	101.855919	731.163383	906.409860	206.590235	865.433574	801.354647	424.484372	884.356678	771.393657	23.397386	901.474357	463.871568	408.828735	883.574367	471.846491	78.018427	879.333138	402.408212	416.078210	830.024779	71.100578	438.087165	866.729200	397.746623	77.697322	853.775263	72.042383	91.532938	969.483435	43.563135	433.993250	777.904689	53.680379	390.740007	796.808481	57.964467	127.275586	985.329866	44.035133	114.800759	857.847214	69.432169	361.693084	866.452634	72.817042	168.872267	896.377981	447.713941	261.093646	855.243564	447.611719	221.074432	
2266	9.064000	866.927803	1254.246950	357.731909	852.762699	1258.342862	75.454980	772.464514	1313.291430	215.571150	973.146081	882.076502	340.713948	976.442218	875.077784	101.843283	731.146157	906.401277	206.577271	865.431905	801.394641	424.457580	884.355664	771.408021	23.372678	901.457489	463.887095	408.815980	883.553326	471.848547	78.006350	879.324079	402.425706	416.063279	830.014229	71.116000	438.073307	866.719067	397.745311	77.697232	853.721976	72.038233	91.514677	969.484985	43.574218	433.981299	777.892888	53.676095	390.740037	796.765268	58.087260	127.365470	985.326886	44.039361	114.784949	857.847154	69.427490	361.677021	866.448343	72.834931	168.856308	896.355510	447.697729	261.066318	855.247021	447.620988	221.056849	
2267	9.068000	866.915703	1254.250050	357.701570	852.730513	1258.352757	75.426333	772.431254	1313.323736	215.537354	973.145545	882.099926	340.696365	976.440430	875.093102	101.816222	731.127024	906.399608	206.559137	865.381896	801.403821	424.433738	884.357452	771.411061	23.360092	901.432991	463.898718	408.791363	883.550763	471.853733	77.986710	879.289031	402.448118	416.047275	830.000460	71.127474	438.057840	866.718650	397.752434	77.691674	853.732824	72.038367	91.511644	969.468951	43.575291	433.963239	777.901411	53.697348	390.745223	796.743751	58.136255	127.377093	985.325098	44.054002	114.771515	857.856810	69.422819	361.676872	866.440296	72.858758	168.839276	896.334648	447.684646	261.041820	855.244458	447.614014	221.039668	
2268	9.072000	866.884232	1254.251957	357.681662	852.710009	1258.359313	75.406328	772.374868	1313.349128	215.502918	973.132133	882.123530	340.670973	976.448119	875.119805	101.782292	731.096029	906.394124	206.546962	865.341425	801.426709	424.409509	884.347498	771.410644	23.345025	901.412129	463.922441	408.772588	883.536935	471.854627	77.982247	879.283905	402.458787	416.026741	829.981625	71.141958	438.050449	866.730988	397.750616	77.677831	853.748918	72.027624	91.496132	969.462812	43.590613	433.958113	777.905643	53.705592	390.752435	796.725571	58.151621	127.375364	985.306025	44.067927	114.757836	857.849479	69.435641	361.667305	866.430700	72.877586	168.837503	896.369576	447.684318	261.041850	855.255961	447.620541	221.026123	
2269	9.076000	866.855681	1254.259109	357.670248	852.697372	1258.366585	75.383410	772.339463	1313.363791	215.474769	973.115504	882.147968	340.660274	976.445436	875.178039	101.752251	731.075704	906.383634	206.529498	865.316927	801.454067	424.370706	884.328902	771.416664	23.334704	901.387870	463.944405	408.751845	883.524656	471.851677	77.974543	879.269958	402.476996	416.011214	829.960525	71.159922	438.040912	866.719425	397.749394	77.665746	853.727460	72.015658	91.499254	969.443977	43.609735	433.962762	777.899981	53.688746	390.751481	796.712577	58.164008	127.363294	985.296488	44.082534	114.751324	857.844591	69.439001	361.654222	866.419911	72.893515	168.822050	896.377742	447.684884	261.047244	855.247498	447.621524	221.016884	
2270	9.080000	866.840541	1254.267097	357.651830	852.671266	1258.372664	75.359501	772.303224	1313.396573	215.438515	973.109007	882.170498	340.649426	976.424515	875.214934	101.723000	731.061578	906.371593	206.507236	865.303397	801.479280	424.348891	884.332538	771.426797	23.318978	901.384830	463.955790	408.729315	883.509934	471.846670	77.967510	879.242420	402.502596	415.999562	829.949617	71.170293	438.025951	866.714358	397.748262	77.651367	853.712916	72.046079	91.502056	969.439447	43.638658	433.959335	777.926147	53.674232	390.735239	796.692848	58.187343	127.362087	985.294521	44.087529	114.746422	857.847869	69.441319	361.666650	866.408467	72.911203	168.799400	896.372080	447.696269	261.044115	855.245590	447.613776	220.991179	
2271	9.084000	866.828382	1254.279613	357.617706	852.637887	1258.383036	75.340122	772.281289	1313.421011	215.397045	973.101795	882.191777	340.637982	976.396561	875.227094	101.713151	731.043994	906.380117	206.485033	865.276873	801.479042	424.317658	884.311020	771.426201	23.308113	901.363134	463.969797	408.709556	883.502722	471.846700	77.963158	879.234076	402.515382	415.979207	829.937339	71.178250	438.022733	866.694868	397.746086	77.646591	854.000509	71.988240	91.626391	969.457269	43.656558	433.950990	777.905822	53.676918	390.729934	796.824515	57.321005	126.276478	985.288799	44.088326	114.744812	857.855678	69.456384	361.656457	866.393209	72.935544	168.801606	896.360755	447.709948	261.034727	855.252564	447.608173	220.981717	
2272	9.088000	866.827369	1254.285336	357.586920	852.616668	1258.384109	75.320765	772.273362	1313.425660	215.372801	973.101735	882.210672	340.625376	976.378202	875.240326	101.689212	731.021523	906.384885	206.471384	865.227222	801.485896	424.287498	884.288669	771.422207	23.296386	901.335776	463.983059	408.711076	883.498192	471.845895	77.951297	879.237473	402.522564	415.965885	829.941630	71.188480	438.018411	866.693974	397.744834	77.636987	854.374826	71.916036	91.781124	969.446063	43.654017	433.947265	777.901232	53.694192	390.735447	796.993077	56.213893	124.931931	985.272169	44.106808	114.739604	857.863665	69.453031	361.642987	866.388798	72.938092	168.802470	896.329224	447.711319	261.022329	855.238080	447.614640	220.983028	
